HIERARCHY
ROOT Hips
{
    OFFSET 0.000000 0.000000 0.000000
    CHANNELS 6 Xposition Yposition Zposition Zrotation Yrotation Xrotation
    JOINT Chest
    {
        OFFSET 0.000000 1.634758 -0.000000
        CHANNELS 3 Zrotation Yrotation Xrotation
        JOINT Chest2
        {
            OFFSET 0.000000 2.197341 0.000000
            CHANNELS 3 Zrotation Yrotation Xrotation
            JOINT Neck
            {
                OFFSET 0.000000 0.961544 0.000000
                CHANNELS 3 Zrotation Yrotation Xrotation
                JOINT Head
                {
                    OFFSET 0.000000 0.632542 -0.032565
                    CHANNELS 3 Zrotation Yrotation Xrotation
                    End Site
                    {
                        OFFSET -0.000001 0.439502 2.922845
                    }
                }
            }
            JOINT LeftCollar
            {
                OFFSET 0.167536 0.778237 -0.168280
                CHANNELS 3 Zrotation Yrotation Xrotation
                JOINT LeftShoulder
                {
                    OFFSET 0.831514 -0.002900 0.006458
                    CHANNELS 3 Zrotation Yrotation Xrotation
                    JOINT LeftElbow
                    {
                        OFFSET 2.272872 -0.026639 0.059314
                        CHANNELS 3 Zrotation Yrotation Xrotation
                        JOINT LeftWrist
                        {
                            OFFSET 2.081982 -0.024402 0.054333
                            CHANNELS 3 Zrotation Yrotation Xrotation
                            JOINT LeftHandThumb1
                            {
                                OFFSET 0.218903 -0.128645 0.283837
                                CHANNELS 3 Zrotation Yrotation Xrotation
                                JOINT LeftHandThumb2
                                {
                                    OFFSET 0.137157 -0.025101 0.077902
                                    CHANNELS 3 Zrotation Yrotation Xrotation
                                    JOINT LeftHandThumb3
                                    {
                                        OFFSET 0.168595 -0.067221 0.024422
                                        CHANNELS 3 Zrotation Yrotation Xrotation
                                        End Site
                                        {
                                            OFFSET 0.252337 -0.084569 0.031795
                                        }
                                    }
                                }
                            }
                            JOINT LeftHandFore1
                            {
                                OFFSET 0.767340 -0.016076 0.196678
                                CHANNELS 3 Zrotation Yrotation Xrotation
                                JOINT LeftHandFore2
                                {
                                    OFFSET 0.179787 -0.120935 0.006845
                                    CHANNELS 3 Zrotation Yrotation Xrotation
                                    JOINT LeftHandFore3
                                    {
                                        OFFSET 0.061887 -0.113547 -0.006313
                                        CHANNELS 3 Zrotation Yrotation Xrotation
                                        End Site
                                        {
                                            OFFSET 0.017209 -0.192397 -0.007339
                                        }
                                    }
                                }
                            }
                            JOINT LeftHandMiddle1
                            {
                                OFFSET 0.709887 -0.008320 0.018526
                                CHANNELS 3 Zrotation Yrotation Xrotation
                                JOINT LeftHandMiddle2
                                {
                                    OFFSET 0.209082 -0.127858 0.000980
                                    CHANNELS 3 Zrotation Yrotation Xrotation
                                    JOINT LeftHandMiddle3
                                    {
                                        OFFSET 0.082275 -0.120571 -0.008749
                                        CHANNELS 3 Zrotation Yrotation Xrotation
                                        End Site
                                        {
                                            OFFSET 0.033303 -0.233203 -0.011720
                                        }
                                    }
                                }
                            }
                            JOINT LeftHandRing1
                            {
                                OFFSET 0.743817 -0.005823 -0.153668
                                CHANNELS 3 Zrotation Yrotation Xrotation
                                JOINT LeftHandRing2
                                {
                                    OFFSET 0.297972 -0.188845 -0.016849
                                    CHANNELS 3 Zrotation Yrotation Xrotation
                                    JOINT LeftHandRing3
                                    {
                                        OFFSET 0.071002 -0.115550 -0.014574
                                        CHANNELS 3 Zrotation Yrotation Xrotation
                                        End Site
                                        {
                                            OFFSET 0.007705 -0.119045 -0.013731
                                        }
                                    }
                                }
                            }
                            JOINT LeftHandLittle1
                            {
                                OFFSET 0.689408 -0.053302 -0.308304
                                CHANNELS 3 Zrotation Yrotation Xrotation
                                JOINT LeftHandLittle2
                                {
                                    OFFSET 0.167334 -0.098405 -0.019240
                                    CHANNELS 3 Zrotation Yrotation Xrotation
                                    JOINT LeftHandLittle3
                                    {
                                        OFFSET 0.057888 -0.103633 -0.020134
                                        CHANNELS 3 Zrotation Yrotation Xrotation
                                        End Site
                                        {
                                            OFFSET 0.032557 -0.183078 -0.041367
                                        }
                                    }
                                }
                            }
                        }
                    }
                }
            }
            JOINT RightCollar
            {
                OFFSET -0.167536 0.778237 -0.168280
                CHANNELS 3 Zrotation Yrotation Xrotation
                JOINT RightShoulder
                {
                    OFFSET -0.831514 -0.002900 0.006457
                    CHANNELS 3 Zrotation Yrotation Xrotation
                    JOINT RightElbow
                    {
                        OFFSET -2.272872 -0.026639 0.059313
                        CHANNELS 3 Zrotation Yrotation Xrotation
                        JOINT RightWrist
                        {
                            OFFSET -2.081982 -0.024402 0.054331
                            CHANNELS 3 Zrotation Yrotation Xrotation
                            JOINT RightHandThumb1
                            {
                                OFFSET -0.218911 -0.128571 0.283837
                                CHANNELS 3 Zrotation Yrotation Xrotation
                                JOINT RightHandThumb2
                                {
                                    OFFSET -0.137157 -0.025101 0.077902
                                    CHANNELS 3 Zrotation Yrotation Xrotation
                                    JOINT RightHandThumb3
                                    {
                                        OFFSET -0.161447 -0.079946 0.032909
                                        CHANNELS 3 Zrotation Yrotation Xrotation
                                        End Site
                                        {
                                            OFFSET -0.229400 -0.125438 0.058970
                                        }
                                    }
                                }
                            }
                            JOINT RightHandFore1
                            {
                                OFFSET -0.767344 -0.015991 0.196679
                                CHANNELS 3 Zrotation Yrotation Xrotation
                                JOINT RightHandFore2
                                {
                                    OFFSET -0.179817 -0.120896 0.006842
                                    CHANNELS 3 Zrotation Yrotation Xrotation
                                    JOINT RightHandFore3
                                    {
                                        OFFSET -0.061466 -0.113009 0.014589
                                        CHANNELS 3 Zrotation Yrotation Xrotation
                                        End Site
                                        {
                                            OFFSET -0.016693 -0.191773 0.017638
                                        }
                                    }
                                }
                            }
                            JOINT RightHandMiddle1
                            {
                                OFFSET -0.709887 -0.008302 0.018525
                                CHANNELS 3 Zrotation Yrotation Xrotation
                                JOINT RightHandMiddle2
                                {
                                    OFFSET -0.209066 -0.127876 0.000983
                                    CHANNELS 3 Zrotation Yrotation Xrotation
                                    JOINT RightHandMiddle3
                                    {
                                        OFFSET -0.082620 -0.119828 0.014125
                                        CHANNELS 3 Zrotation Yrotation Xrotation
                                        End Site
                                        {
                                            OFFSET -0.033889 -0.231958 0.026022
                                        }
                                    }
                                }
                            }
                            JOINT RightHandRing1
                            {
                                OFFSET -0.743819 -0.005785 -0.153669
                                CHANNELS 3 Zrotation Yrotation Xrotation
                                JOINT RightHandRing2
                                {
                                    OFFSET -0.297985 -0.188824 -0.016848
                                    CHANNELS 3 Zrotation Yrotation Xrotation
                                    JOINT RightHandRing3
                                    {
                                        OFFSET -0.071368 -0.116240 -0.000080
                                        CHANNELS 3 Zrotation Yrotation Xrotation
                                        End Site
                                        {
                                            OFFSET -0.008111 -0.119791 0.002161
                                        }
                                    }
                                }
                            }
                            JOINT RightHandLittle1
                            {
                                OFFSET -0.689403 -0.053298 -0.308303
                                CHANNELS 3 Zrotation Yrotation Xrotation
                                JOINT RightHandLittle2
                                {
                                    OFFSET -0.167339 -0.098401 -0.019241
                                    CHANNELS 3 Zrotation Yrotation Xrotation
                                    JOINT RightHandLittle3
                                    {
                                        OFFSET -0.058684 -0.104918 -0.006631
                                        CHANNELS 3 Zrotation Yrotation Xrotation
                                        End Site
                                        {
                                            OFFSET -0.035078 -0.187227 0.002041
                                        }
                                    }
                                }
                            }
                        }
                    }
                }
            }
        }
    }
    JOINT LeftHip
    {
        OFFSET 0.685143 0.673822 -0.044491
        CHANNELS 3 Zrotation Yrotation Xrotation
        JOINT LeftKnee
        {
            OFFSET 0.085364 -3.750208 0.017676
            CHANNELS 3 Zrotation Yrotation Xrotation
            JOINT LeftAnkle
            {
                OFFSET 0.094583 -4.155206 0.019585
                CHANNELS 3 Zrotation Yrotation Xrotation
                JOINT LeftToe
                {
                    OFFSET -0.000000 -0.395925 0.621478
                    CHANNELS 3 Zrotation Yrotation Xrotation
                    End Site
                    {
                        OFFSET -0.000000 -0.077878 0.321152
                    }
                }
            }
        }
    }
    JOINT RightHip
    {
        OFFSET -0.685143 0.673822 -0.044492
        CHANNELS 3 Zrotation Yrotation Xrotation
        JOINT RightKnee
        {
            OFFSET -0.085364 -3.750208 0.017677
            CHANNELS 3 Zrotation Yrotation Xrotation
            JOINT RightAnkle
            {
                OFFSET -0.094583 -4.155206 0.019585
                CHANNELS 3 Zrotation Yrotation Xrotation
                JOINT RightToe
                {
                    OFFSET -0.000000 -0.395925 0.621478
                    CHANNELS 3 Zrotation Yrotation Xrotation
                    End Site
                    {
                        OFFSET -0.000000 -0.077878 0.321152
                    }
                }
            }
        }
    }
}
MOTION
Frames: 4
Frame Time: 0.033333
-0.015740 8.509415 -0.474365 180.000000 -0.000011 180.000000 -0.000002 0.000000 -3.571786 -0.000002 -0.000000 -3.645257 0.000003 -0.000003 4.684104 0.000005 -0.000009 11.067135 -14.447367 1.641559 0.005733 -57.696629 5.153504 -0.818219 -0.000004 0.000000 0.000000 4.395506 -0.605275 4.114094 0.000000 0.000003 -0.000002 0.000002 0.000001 0.000002 0.000000 -0.000000 -0.000002 -0.000001 0.000000 -0.000000 0.000007 0.000000 0.000000 0.000002 0.000000 -0.000000 0.000002 -0.000000 0.000000 0.000004 -0.000000 0.000000 -0.000005 -0.000000 0.000000 0.000004 -0.000000 0.000000 0.000002 0.000001 -0.000000 0.000005 -0.000000 -0.000000 -0.000001 0.000000 -0.000001 -0.000001 -0.000000 0.000001 0.000000 -0.000000 0.000001 14.462702 -1.444352 0.005028 57.739067 -4.510957 -0.619703 0.000001 0.000000 0.000000 -4.442694 -0.168603 3.804083 0.000001 0.000002 0.000003 0.000001 -0.000000 -0.000002 -0.000003 -0.000003 0.000000 -0.000006 -0.000000 -0.000000 0.000001 -0.000000 -0.000001 0.000001 0.000000 0.000000 0.000002 -0.000000 -0.000000 -0.000003 -0.000000 -0.000001 0.000002 -0.000000 0.000001 -0.000006 -0.000000 0.000000 0.000004 -0.000000 -0.000000 0.000002 -0.000001 -0.000000 0.000001 -0.000001 0.000000 0.000004 0.000001 -0.000001 -0.000006 -0.000000 0.000000 -0.828503 -0.104165 -2.863337 0.027870 0.268152 11.865155 1.634915 2.183563 -14.084726 0.000000 0.000000 0.000002 0.828502 0.104140 -2.862163 -0.027827 -0.267999 11.858226 -1.635350 -2.183605 -14.076539 0.000000 -0.000000 0.000003
-0.015740 8.509421 -0.474365 180.000000 -0.000011 180.000000 0.000330 0.000107 -3.571789 0.000340 -0.000042 -3.645262 -0.000211 0.000030 4.686036 0.000008 -0.000068 11.070807 -14.447418 1.641606 0.005718 -57.696972 5.153463 -0.818221 0.000006 0.000000 0.000000 4.395508 -0.605333 4.114089 -0.000009 -0.000008 -0.000004 -0.000004 0.000002 0.000003 -0.000002 0.000001 -0.000003 -0.000014 -0.000003 -0.000001 0.000005 0.000000 -0.000000 -0.000002 -0.000000 -0.000000 -0.000019 -0.000002 -0.000001 0.000005 -0.000000 0.000000 -0.000002 -0.000000 0.000000 -0.000012 -0.000003 0.000000 -0.000004 0.000001 -0.000000 0.000006 -0.000000 -0.000000 -0.000019 -0.000002 -0.000000 -0.000002 -0.000001 0.000000 -0.000002 0.000001 0.000002 14.462706 -1.444352 0.005045 57.738430 -4.511121 -0.619728 -0.000001 -0.000000 0.000000 -4.442695 -0.169178 3.804184 -0.000009 -0.000010 0.000007 0.000001 0.000002 -0.000005 -0.000001 -0.000002 0.000000 -0.000008 -0.000001 -0.000002 0.000009 -0.000000 -0.000000 -0.000004 0.000001 0.000000 -0.000014 -0.000000 -0.000002 -0.000004 -0.000000 -0.000000 -0.000001 0.000000 0.000000 -0.000021 0.000001 -0.000002 0.000008 -0.000000 -0.000000 0.000003 -0.000001 -0.000000 -0.000013 0.000000 -0.000002 0.000001 0.000001 0.000000 -0.000008 -0.000000 0.000000 -0.828638 -0.104188 -2.862508 0.027863 0.268118 11.863606 1.635248 2.183816 -14.084143 -0.000000 0.000000 0.000005 0.828514 0.104340 -2.861669 -0.027823 -0.267979 11.857330 -1.635040 -2.183766 -14.076131 0.000000 -0.000000 0.000003
-0.015740 8.509441 -0.474364 180.000000 -0.000011 180.000000 0.001322 0.000425 -3.571797 0.001362 -0.000168 -3.645268 -0.000849 0.000126 4.691699 0.000017 -0.000246 11.081568 -14.447557 1.641745 0.005670 -57.698051 5.153337 -0.818236 0.000001 0.000000 -0.000000 4.395507 -0.605501 4.114074 -0.000001 -0.000007 0.000001 -0.000004 -0.000002 0.000005 0.000003 0.000001 -0.000005 -0.000008 -0.000001 -0.000002 -0.000001 0.000000 -0.000000 0.000003 0.000000 -0.000001 -0.000008 -0.000000 -0.000001 0.000003 -0.000000 -0.000000 -0.000003 -0.000001 0.000000 -0.000003 -0.000001 -0.000001 -0.000001 0.000001 -0.000000 0.000004 -0.000001 -0.000001 -0.000014 -0.000001 -0.000001 -0.000001 -0.000000 0.000001 -0.000003 0.000000 -0.000001 14.462661 -1.444343 0.005093 57.736561 -4.511622 -0.619803 -0.000003 0.000000 0.000000 -4.442702 -0.170893 3.804483 -0.000004 -0.000010 0.000014 0.000001 0.000002 -0.000000 -0.000001 -0.000001 -0.000002 -0.000009 -0.000000 0.000000 -0.000000 -0.000002 -0.000000 0.000001 0.000001 0.000000 -0.000005 0.000001 -0.000000 -0.000002 -0.000000 -0.000001 0.000003 0.000000 0.000000 -0.000009 0.000002 -0.000001 0.000002 0.000000 -0.000000 0.000003 -0.000001 0.000000 0.000007 0.000000 -0.000000 0.000003 0.000000 0.000000 -0.000005 0.000000 0.000000 -0.829045 -0.104266 -2.860116 0.027842 0.268018 11.859121 1.636241 2.184579 -14.082469 0.000000 0.000001 0.000000 0.828552 0.104939 -2.860189 -0.027811 -0.267919 11.854639 -1.634117 -2.184245 -14.074903 -0.000000 -0.000001 0.000004
-0.015740 8.509474 -0.474363 180.000000 -0.000011 180.000000 0.002967 0.000953 -3.571810 0.003058 -0.000376 -3.645279 -0.001908 0.000285 4.700884 0.000032 -0.000543 11.099028 -14.447887 1.641987 0.005590 -57.699726 5.153120 -0.818238 0.000000 -0.000000 0.000000 4.395509 -0.605781 4.114048 -0.000008 -0.000015 0.000001 -0.000001 -0.000000 0.000002 0.000001 0.000001 -0.000003 -0.000009 -0.000003 -0.000001 0.000008 0.000001 -0.000000 -0.000002 -0.000000 -0.000000 -0.000009 -0.000002 -0.000002 -0.000001 -0.000001 0.000000 -0.000002 -0.000001 -0.000000 -0.000008 -0.000004 -0.000001 -0.000001 0.000001 0.000000 0.000001 -0.000001 0.000000 -0.000016 -0.000004 -0.000001 0.000003 0.000001 -0.000000 -0.000001 -0.000000 0.000001 14.462587 -1.444328 0.005172 57.733444 -4.512454 -0.619954 0.000000 0.000000 0.000000 -4.442708 -0.173733 3.804978 0.000003 -0.000012 0.000013 0.000003 -0.000000 -0.000002 -0.000002 -0.000002 -0.000003 -0.000004 -0.000004 -0.000002 0.000007 -0.000001 -0.000001 -0.000004 0.000002 0.000000 -0.000000 -0.000004 -0.000002 -0.000004 0.000000 -0.000001 0.000001 0.000001 0.000001 0.000001 -0.000003 -0.000002 0.000003 0.000000 -0.000000 0.000007 -0.000001 -0.000000 -0.000004 -0.000003 -0.000002 -0.000000 0.000001 -0.000000 -0.000004 -0.000000 0.000000 -0.829718 -0.104396 -2.856159 0.027807 0.267853 11.851706 1.637884 2.185845 -14.079706 0.000000 -0.000000 0.000003 0.828613 0.105923 -2.857535 -0.027788 -0.267811 11.849796 -1.632592 -2.185035 -14.072685 -0.000000 -0.000000 0.000004
